<svg height="480pt" viewBox="-64 0 480 480.00101" width="480pt" xmlns="http://www.w3.org/2000/svg"><path d="m102.082031 348.640625c2.097657.003906 4.113281-.832031 5.597657-2.320313l28.082031-28 .238281-.238281 11.28125 11.277344c3.175781 3.042969 8.183594 3.042969 11.359375 0 3.101563-3.117187 3.101563-8.15625 0-11.277344l-16.960937-16.960937c-3.175782-3.039063-8.183594-3.039063-11.359376 0l-33.917968 33.917968c-2.253906 2.296876-2.910156 5.71875-1.671875 8.683594 1.238281 2.96875 4.136719 4.90625 7.351562 4.917969zm0 0"/><path d="m186.871094 346.320312c-3.140625-3.039062-8.128906-3.039062-11.269532 0-.15625.140626-.292968.304688-.410156.480469l-39.191406 39.121094c-3.175781-2.960937-8.101562-2.960937-11.28125 0-1.53125 1.492187-2.398438 3.539063-2.398438 5.679687 0 2.140626.867188 4.1875 2.398438 5.679688l5.601562 5.601562c1.488282 1.535157 3.539063 2.40625 5.679688 2.40625s4.191406-.871093 5.679688-2.40625l45.191406-45.195312c1.527344-1.496094 2.390625-3.539062 2.402344-5.679688.003906-2.101562-.832032-4.117187-2.320313-5.597656.007813-.089844-.082031-.089844-.082031-.089844zm0 0"/><path d="m74.242188 207.28125-23.203126-6c-2.058593-.535156-4.242187-.226562-6.074218.855469-1.832032 1.078125-3.15625 2.84375-3.683594 4.902343l-12 46.472657c-.542969 2.039062-.25 4.210937.816406 6.027343 1.066406 1.820313 2.820313 3.136719 4.863282 3.652344.679687.191406 1.375.296875 2.078124.320313 3.628907-.011719 6.789063-2.480469 7.679688-6 0 0 10-38.640625 11.28125-38.710938v-.078125l14.242188 4c4.246093 1.023438 8.550781-1.480468 9.757812-5.683594.535156-2.054687.226562-4.242187-.851562-6.074218-1.082032-1.832032-2.847657-3.15625-4.90625-3.683594zm0 0"/><path d="m99.039062 293.832031c1.835938-1.058593 3.160157-2.816406 3.679688-4.871093l16-61.921876c.535156-2.054687.230469-4.242187-.851562-6.074218-1.082032-1.832032-2.847657-3.15625-4.90625-3.683594-4.273438-1.007812-8.582032 1.53125-9.769532 5.757812l-14 54.152344c-3.128906-.753906-6.40625.425782-8.335937 3.003906-1.929688 2.578126-2.140625 6.054688-.535157 8.84375 1.101563 1.800782 2.839844 3.117188 4.871094 3.683594l7.769532 2c.683593.152344 1.378906.234375 2.078124.238282 1.410157-.015626 2.789063-.40625 4-1.128907zm0 0"/><path d="m160 224h40v16c0 4.417969 3.582031 8 8 8s8-3.582031 8-8v-24c.023438-2.128906-.8125-4.175781-2.320312-5.679688-1.503907-1.503906-3.550782-2.339843-5.679688-2.320312h-48c-4.417969 0-8 3.582031-8 8s3.582031 8 8 8zm0 0"/><path d="m152 232c0 4.417969-3.582031 8-8 8s-8-3.582031-8-8 3.582031-8 8-8 8 3.582031 8 8zm0 0"/><path d="m112 368c0 4.417969-3.582031 8-8 8s-8-3.582031-8-8 3.582031-8 8-8 8 3.582031 8 8zm0 0"/><path d="m64 280c0 4.417969-3.582031 8-8 8s-8-3.582031-8-8 3.582031-8 8-8 8 3.582031 8 8zm0 0"/><path d="m144 288h64c4.417969 0 8-3.582031 8-8s-3.582031-8-8-8h-56c0-4.417969-3.582031-8-8-8s-8 3.582031-8 8v8c-.019531 2.128906.816406 4.175781 2.320312 5.683594 1.503907 1.503906 3.550782 2.339844 5.679688 2.316406zm0 0"/><path d="m312 136c17.953125.050781 33.722656-11.898438 38.535156-29.191406 4.816406-17.292969-2.515625-35.671875-17.910156-44.902344l18.878906-51.128906c1.535156-4.144532-.582031-8.746094-4.726562-10.28125-4.144532-1.53125-8.746094.585937-10.28125 4.730468l-18.960938 51.335938c-1.828125-.316406-3.679687-.503906-5.535156-.5625-17.753906-.011719-33.382812 11.699219-38.359375 28.738281-4.972656 17.042969 1.902344 35.320313 16.871094 44.863281l-11.199219 30.398438h-271.3125c-4.417969 0-8 3.582031-8 8v304c0 4.417969 3.582031 8 8 8h304c4.417969 0 8-3.582031 8-8v-304c0-4.417969-3.582031-8-8-8h-15.648438l9.121094-24.664062c2.152344.40625 4.335938.628906 6.527344.664062zm-296 328v-24h288v24zm288-288v248h-288v-248h257.375l-72.878906 197.226562c-1.53125 4.144532.585937 8.746094 4.726562 10.277344 4.144532 1.535156 8.75-.582031 10.28125-4.726562l74.9375-202.777344zm8-104c9.675781-.066406 18.441406 5.683594 22.238281 14.582031 3.796875 8.898438 1.878907 19.203125-4.859375 26.144531-6.742187 6.9375-16.992187 9.148438-25.996094 5.609376-.046874 0-.078124-.0625-.132812-.085938-.058594-.023438-.175781 0-.265625 0-10.652344-4.308594-16.753906-15.5625-14.554687-26.839844 2.199218-11.277344 12.082031-19.417968 23.570312-19.410156zm0 0"/></svg>