<?xml version="1.0" encoding="iso-8859-1"?>
<!-- Generator: Adobe Illustrator 19.0.0, SVG Export Plug-In . SVG Version: 6.00 Build 0)  -->
<svg version="1.1" id="Layer_1" xmlns="http://www.w3.org/2000/svg" xmlns:xlink="http://www.w3.org/1999/xlink" x="0px" y="0px"
	 viewBox="0 0 512 512" style="enable-background:new 0 0 512 512;" xml:space="preserve">
<g>
	<g>
		<path d="M270.29,249.274l-54.869-0.637c-7.918,0-15.359,1.045-22.147,3.086c-16.238,1.952-39.499,1.784-59.271-9.748
			c-6.791-3.966-12.764-9.076-17.755-15.191c-4.466-5.465-8.278-11.896-11.326-19.111c-0.004-0.01-0.007-0.022-0.011-0.032
			c-0.289-0.681-0.56-1.342-0.819-1.994v-0.001c-0.245-0.616-0.476-1.226-0.702-1.838c-0.013-0.036-0.027-0.072-0.04-0.108
			c-1.67-4.497-3.268-8.847-4.816-13.061c-0.453-1.236-0.904-2.465-1.348-3.677l-1.074-2.928c-0.006-0.016-0.014-0.03-0.02-0.045
			c-2.729-7.453-5.628-15.338-8.35-22.53c-0.783-2.062-1.526-4.002-2.24-5.845c-2.799-7.231-5.136-12.932-7.371-17.995
			c-0.008-0.019-0.019-0.037-0.027-0.055c-10.721-24.347-24.761-49.353-55.693-38.16c-11.947,4.314-30.27,19.137-18.762,69.953
			c1.071,4.695,2.376,9.544,3.889,14.497c0.184,0.602,0.369,1.204,0.559,1.808c0.938,2.984,1.949,6.004,3.038,9.053
			c3.402,9.457,7.431,18.96,11.967,28.226c2.872,5.898,5.95,11.697,9.173,17.288c1.077,1.87,2.172,3.721,3.283,5.547
			c0.01,0.018,0.024,0.032,0.034,0.049c0.833,1.388,1.677,2.753,2.52,4.077c4.845,7.686,10.574,14.886,17.031,21.401
			c3.158,3.183,6.521,6.222,10.063,9.106c3.717,3.028,7.63,5.882,11.715,8.534c0.009,0.006,0.019,0.01,0.028,0.016
			c22.584,14.625,46.722,21.075,65.486,23.845l-9.432,26.736c-1.441,4.081,0.701,8.557,4.783,9.997
			c0.862,0.304,1.742,0.448,2.607,0.448c3.23,0,6.254-2.013,7.39-5.231l12.395-35.131c0.016-0.044,0.025-0.09,0.04-0.134
			l0.258-0.736c7.892-22.866,19.899-36.554,36.704-41.847c5.474-1.722,11.61-2.596,18.15-2.597l54.778,0.637c0.03,0,0.062,0,0.093,0
			c4.285,0,7.782-3.449,7.833-7.745C278.085,252.873,274.618,249.324,270.29,249.274z M27.737,114.144
			c12.32-4.46,20.765-2.077,32.792,22.738l-43.389,19.513C14.909,141.841,13.869,119.152,27.737,114.144z M23.06,180.997
			c-0.428-1.359-0.841-2.713-1.234-4.054c-0.072-0.245-0.14-0.488-0.21-0.732c-0.373-1.293-0.732-2.577-1.072-3.849
			c-0.025-0.093-0.051-0.186-0.075-0.279l46.412-20.873c0.126,0.306,0.254,0.621,0.382,0.934c0.085,0.207,0.168,0.413,0.254,0.623
			c0.14,0.344,0.28,0.691,0.422,1.043c0.11,0.273,0.221,0.551,0.333,0.829c0.208,0.519,0.419,1.048,0.633,1.586
			c0.131,0.328,0.261,0.657,0.394,0.993c0.13,0.328,0.26,0.66,0.393,0.997c0.169,0.432,0.341,0.87,0.514,1.313
			c0.078,0.201,0.156,0.397,0.234,0.6l-47.262,21.243C23.139,181.245,23.099,181.12,23.06,180.997z M33.668,208.567
			c-1.856-4.109-3.612-8.241-5.235-12.377l47.572-21.383c1.026,2.761,2.06,5.561,3.086,8.351L33.668,208.567z M43.204,227.678
			c-0.134-0.245-0.273-0.485-0.405-0.729c-0.768-1.41-1.517-2.836-2.263-4.265l44.024-24.626c1.094,2.979,2.215,6.025,3.365,9.131
			l-42.791,23.928C44.484,229.976,43.84,228.833,43.204,227.678z M61.827,255.499c-3.072-3.488-5.917-7.164-8.516-11l40.903-22.872
			c1.511,2.87,3.138,5.618,4.877,8.236L61.827,255.499z M80.813,272.614c-1.166-0.834-2.312-1.686-3.439-2.558
			c-0.239-0.185-0.473-0.373-0.711-0.56c-1.095-0.861-2.175-1.736-3.231-2.63c-0.072-0.061-0.145-0.12-0.217-0.181l35.721-24.575
			c0.054,0.056,0.115,0.108,0.169,0.163c0.96,0.979,1.95,1.926,2.957,2.853c0.375,0.346,0.759,0.681,1.14,1.02
			c0.749,0.665,1.512,1.314,2.285,1.95c0.254,0.209,0.493,0.434,0.749,0.639l-35.066,24.132
			C81.053,272.783,80.931,272.699,80.813,272.614z M147.868,297.724c-13.172-1.73-32.796-5.899-52.047-15.912l34.716-23.891
			c11.855,5.997,24.36,8.853,36.098,9.907C159.032,275.518,152.762,285.5,147.868,297.724z"/>
	</g>
</g>
<g>
	<g>
		<circle cx="464.53" cy="281.13" r="7.836"/>
	</g>
</g>
<g>
	<g>
		<path d="M460.777,385.115l-13.682-5.46c-1.399-0.566-2.517-1.668-3.067-3.02c-0.153-0.376-0.334-0.74-0.543-1.089l-17.858-29.711
			l16.604-18.101c4.103,0.16,7.69-2.907,8.103-7.057c0.426-4.307-2.718-8.144-7.025-8.571c-1.465-0.145-2.718-0.266-3.714-0.333
			c-2.368-0.167-4.693,0.766-6.302,2.521l-23.174,25.262c-2.348,2.559-2.731,6.357-0.941,9.334l20.599,34.27
			c2.211,4.964,6.347,8.959,11.474,11.035l13.711,5.471c0.006,0.002,0.013,0.005,0.019,0.007h-32.107
			c-5.276,0-10.388-2.194-14.026-6.016l-41.271-43.403c-1.479-1.555-3.531-2.435-5.677-2.435h-46.165c-0.021,0-0.042,0-0.063,0
			h-62.32l10.133-5.744c3.765-2.135,5.088-6.916,2.953-10.681c-2.133-3.765-6.915-5.086-10.681-2.954l-73.17,41.476
			c-4.16,2.358-7.011,6.413-7.825,11.124c-0.812,4.709,0.516,9.484,3.644,13.097c0.339,0.391,0.525,0.889,0.525,1.404v1.981
			c0,1.186-0.968,2.15-2.157,2.15h-37.298c-2.58,0-4.914-1.207-6.402-3.311c-1.486-2.099-1.847-4.694-0.992-7.119l1.738-4.925
			c1.441-4.081-0.701-8.557-4.783-9.998c-4.08-1.439-8.556,0.701-9.995,4.782l-1.738,4.925c-2.533,7.177-1.42,15.173,2.977,21.387
			c4.399,6.218,11.575,9.93,19.195,9.93h37.298c9.83,0,17.829-7.995,17.829-17.822v-1.981c0-4.281-1.543-8.422-4.346-11.661
			c-0.033-0.038-0.067-0.077-0.05-0.177c0.018-0.102,0.065-0.129,0.109-0.153l1.915-1.086l3.562,9.014
			c5.735,14.498,19.52,23.864,35.12,23.864h38.824c9.979,0,18.097-8.113,18.097-18.086c0-2.94-0.726-5.869-2.112-8.49
			c-1.387-2.603-3.408-4.848-5.848-6.492c-0.411-0.277-0.846-0.513-1.301-0.707l-4.525-1.933
			c-7.062-3.016-12.558-8.955-15.081-16.145h43.78l-7.823,14.754c-4.501,7.676-4.571,16.86-0.172,24.615
			c4.432,7.817,12.447,12.484,21.436,12.484h44.372c3.761,0,7.307-1.463,10.038-4.17c2.656-2.68,4.118-6.227,4.118-9.986
			c0-7.117-4.275-13.426-10.916-16.083l-0.478-0.19c-2.461-0.983-3.156-3.096-3.339-3.959c-0.184-0.861-0.414-3.07,1.451-4.993
			l4.507-4.686l31.551,33.181c6.583,6.918,15.834,10.886,25.381,10.886h34.634c3.79,0,7.35-1.471,10.024-4.144
			c2.672-2.673,4.145-6.229,4.145-10.012C471.675,394.074,467.401,387.765,460.777,385.115z M267.893,394.051l3.596,1.536
			c0.156,0.16,0.288,0.341,0.39,0.53c0.189,0.356,0.283,0.741,0.283,1.144c0,1.331-1.088,2.414-2.424,2.414h-38.824
			c-9.127,0-17.192-5.478-20.546-13.955l-4.369-11.056l19.707-11.171h16.968l0.414,1.623
			C246.373,378.006,255.647,388.823,267.893,394.051z M316.189,399.676v-0.001c-4.72,0-7.032-3.179-7.807-4.545
			c-0.774-1.366-2.317-4.981,0.104-9.028c0.068-0.115,0.135-0.232,0.196-0.35l11.802-22.258h31.203l-1.527,1.588
			c-4.921,5.077-6.979,12.236-5.503,19.15c1.478,6.916,6.28,12.614,12.872,15.248l0.475,0.189c0.006,0.002,0.013,0.004,0.018,0.007
			H316.189z"/>
	</g>
</g>
<g>
	<g>
		<path d="M511.454,283.527c-0.947-2.936-3.015-5.219-5.882-6.524l-16.084-10.398l-13.269-18.196
			c-0.285-0.392-0.608-0.756-0.961-1.09c-0.207-0.195-0.418-0.374-0.627-0.566c1.096-8.215-0.055-15.892-3.414-22.421
			c-3.58-6.975-11.68-10.333-19.248-7.985c-5.331,1.644-12.232,4.482-18.303,9.209c-3.677-2.86-8.103-5.299-13.37-6.567
			c-7.617-1.833-15.451,2.104-18.622,9.367c-2.185,5.002-3.553,9.588-4.31,13.78l-62.497,7.773l-21.278-0.225
			c-0.028,0-0.056,0-0.085,0c-4.288,0-7.788,3.454-7.834,7.753c-0.045,4.328,3.426,7.872,7.753,7.918l21.805,0.23
			c0.027,0,0.055,0,0.083,0c0.324,0,0.647-0.02,0.968-0.06l61.104-7.6c1.453,7.033,4.696,12.061,7.416,15.218
			c2.337,2.714,5.747,4.204,9.217,4.204c1.36,0,2.729-0.229,4.047-0.702c5.883-2.116,20.441-8.696,28.55-24.063
			c0.702-1.333,1.139-2.763,1.312-4.215c4.61,1.596,9.067,4.104,13.336,7.538c0.913,0.724,1.834,1.512,2.745,2.348l13.681,18.761
			c0.566,0.776,1.271,1.442,2.077,1.964l15.666,10.126c-1.451,2.74-4.21,6.67-5.738,8.844c-0.554,0.789-1.091,1.554-1.593,2.283
			c-0.583,0.845-0.994,1.797-1.21,2.801l-1.534,7.124c-0.59,2.729-2.955,4.667-5.748,4.711c-4.327,0.07-7.777,3.635-7.707,7.962
			c0.069,4.284,3.564,7.708,7.831,7.708c0.044,0,0.088,0,0.131-0.001c10.11-0.165,18.667-7.181,20.812-17.074l1.205-5.599
			c0.21-0.3,0.423-0.605,0.64-0.913C508.071,299.04,513.817,290.856,511.454,283.527z M415.187,260.924
			c-5.449-8.566-1.914-19.973,0.848-26.297c0.104-0.238,0.33-0.411,0.522-0.411c0.023,0,0.046,0.002,0.068,0.007
			c4.774,1.149,8.528,4.179,11.274,7.294c0.051,0.056,0.097,0.117,0.151,0.172c0.448,0.516,0.866,1.032,1.259,1.543
			c0.069,0.089,0.135,0.181,0.207,0.266c0.924,1.225,1.688,2.403,2.291,3.422C427.075,254.687,419.78,258.905,415.187,260.924z
			 M451.738,233.093c1.837-0.779,3.526-1.362,4.863-1.774c0.287-0.09,0.595,0.015,0.677,0.174c0.739,1.437,1.245,2.929,1.575,4.427
			C456.521,234.803,454.149,233.857,451.738,233.093z"/>
	</g>
</g>
<g>
</g>
<g>
</g>
<g>
</g>
<g>
</g>
<g>
</g>
<g>
</g>
<g>
</g>
<g>
</g>
<g>
</g>
<g>
</g>
<g>
</g>
<g>
</g>
<g>
</g>
<g>
</g>
<g>
</g>
</svg>
